<?xml version="1.0"?>
<!DOCTYPE svg PUBLIC "-//W3C//DTD SVG 1.0//EN" "http://www.w3.org/TR/2001/REC-SVG-20010904/DTD/svg10.dtd">
<svg xmlns="http://www.w3.org/2000/svg" xmlns:xlink="http://www.w3.org/1999/xlink" xmlns:jfreesvg="http://www.jfree.org/jfreesvg/svg" width="285" height="187" text-rendering="auto" shape-rendering="auto">
<defs></defs>
<rect x="0" y="0" width="285" height="182" style="fill: rgb(255,255,255); fill-opacity: 1.0" transform="matrix(1,0,0,1,0,0)" /><rect x="0" y="0" width="189" height="16" style="fill: rgb(255,255,255); fill-opacity: 1.0" transform="matrix(1,0,0,1,96,0)" /><line x1="40" y1="13" x2="40" y2="16" style="stroke-width: 1.0;stroke: rgb(0,0,0);stroke-opacity: 1.0;" transform="matrix(1,0,0,1,96,0)" /><g transform="matrix(1,0,0,1,96,0)"><text x="81" y="10" style="fill: rgb(0,0,0); fill-opacity: 1.0; font-family: sans-serif; font-size: 10px; " >10</text></g><line x1="85" y1="12" x2="85" y2="16" style="stroke-width: 1.0;stroke: rgb(0,0,0);stroke-opacity: 1.0;" transform="matrix(1,0,0,1,96,0)" /><line x1="130" y1="13" x2="130" y2="16" style="stroke-width: 1.0;stroke: rgb(0,0,0);stroke-opacity: 1.0;" transform="matrix(1,0,0,1,96,0)" /><rect x="0" y="0" width="96" height="13" style="fill: rgb(255,255,255); fill-opacity: 1.0" transform="matrix(1,0,0,1,0,16)" /><g transform="matrix(1,0,0,1,0,16)"><text x="0" y="11" style="fill: rgb(0,0,0); fill-opacity: 1.0; font-family: sans-serif; font-size: 10px; font-style: italic; " >A/1-21</text></g><rect x="0" y="13" width="96" height="13" style="fill: rgb(255,255,255); fill-opacity: 1.0" transform="matrix(1,0,0,1,0,16)" /><g transform="matrix(1,0,0,1,0,16)"><text x="0" y="24" style="fill: rgb(0,0,0); fill-opacity: 1.0; font-family: sans-serif; font-size: 10px; font-style: italic; " >A/1-21</text></g><rect x="0" y="26" width="96" height="13" style="fill: rgb(255,255,255); fill-opacity: 1.0" transform="matrix(1,0,0,1,0,16)" /><g transform="matrix(1,0,0,1,0,16)"><text x="0" y="37" style="fill: rgb(0,0,0); fill-opacity: 1.0; font-family: sans-serif; font-size: 10px; font-style: italic; " >A/1-21</text></g><rect x="0" y="39" width="96" height="13" style="fill: rgb(255,255,255); fill-opacity: 1.0" transform="matrix(1,0,0,1,0,16)" /><g transform="matrix(1,0,0,1,0,16)"><text x="0" y="50" style="fill: rgb(0,0,0); fill-opacity: 1.0; font-family: sans-serif; font-size: 10px; font-style: italic; " >A/1-21</text></g><rect x="0" y="52" width="96" height="13" style="fill: rgb(255,255,255); fill-opacity: 1.0" transform="matrix(1,0,0,1,0,16)" /><g transform="matrix(1,0,0,1,0,16)"><text x="0" y="63" style="fill: rgb(0,0,0); fill-opacity: 1.0; font-family: sans-serif; font-size: 10px; font-style: italic; " >A/1-21</text></g><rect x="0" y="65" width="96" height="13" style="fill: rgb(255,255,255); fill-opacity: 1.0" transform="matrix(1,0,0,1,0,16)" /><g transform="matrix(1,0,0,1,0,16)"><text x="0" y="76" style="fill: rgb(0,0,0); fill-opacity: 1.0; font-family: sans-serif; font-size: 10px; font-style: italic; " >B/1-21</text></g><rect x="0" y="78" width="96" height="13" style="fill: rgb(255,255,255); fill-opacity: 1.0" transform="matrix(1,0,0,1,0,16)" /><g transform="matrix(1,0,0,1,0,16)"><text x="0" y="89" style="fill: rgb(0,0,0); fill-opacity: 1.0; font-family: sans-serif; font-size: 10px; font-style: italic; " >B/1-21</text></g><rect x="0" y="91" width="96" height="13" style="fill: rgb(255,255,255); fill-opacity: 1.0" transform="matrix(1,0,0,1,0,16)" /><g transform="matrix(1,0,0,1,0,16)"><text x="0" y="102" style="fill: rgb(0,0,0); fill-opacity: 1.0; font-family: sans-serif; font-size: 10px; font-style: italic; " >B/1-21</text></g><rect x="0" y="104" width="96" height="13" style="fill: rgb(255,255,255); fill-opacity: 1.0" transform="matrix(1,0,0,1,0,16)" /><g transform="matrix(1,0,0,1,0,16)"><text x="0" y="115" style="fill: rgb(0,0,0); fill-opacity: 1.0; font-family: sans-serif; font-size: 10px; font-style: italic; " >B/1-21</text></g><rect x="0" y="117" width="96" height="13" style="fill: rgb(255,255,255); fill-opacity: 1.0" transform="matrix(1,0,0,1,0,16)" /><g transform="matrix(1,0,0,1,0,16)"><text x="0" y="128" style="fill: rgb(0,0,0); fill-opacity: 1.0; font-family: sans-serif; font-size: 10px; font-style: italic; " >B/1-21</text></g><rect x="0" y="0" width="45" height="13" style="fill: rgb(204,255,0); fill-opacity: 1.0" transform="matrix(1,0,0,1,96,16)" /><rect x="45" y="0" width="9" height="13" style="fill: rgb(51,255,0); fill-opacity: 1.0" transform="matrix(1,0,0,1,96,16)" /><rect x="54" y="0" width="45" height="13" style="fill: rgb(204,255,0); fill-opacity: 1.0" transform="matrix(1,0,0,1,96,16)" /><rect x="99" y="0" width="9" height="13" style="fill: rgb(102,255,0); fill-opacity: 1.0" transform="matrix(1,0,0,1,96,16)" /><rect x="108" y="0" width="54" height="13" style="fill: rgb(204,255,0); fill-opacity: 1.0" transform="matrix(1,0,0,1,96,16)" /><rect x="162" y="0" width="9" height="13" style="fill: rgb(0,0,255); fill-opacity: 1.0" transform="matrix(1,0,0,1,96,16)" /><rect x="171" y="0" width="18" height="13" style="fill: rgb(255,0,0); fill-opacity: 1.0" transform="matrix(1,0,0,1,96,16)" /><g transform="matrix(1,0,0,1,96,16)"><text x="1" y="11" style="fill: rgb(0,0,0); fill-opacity: 1.0; font-family: sans-serif; font-size: 10px; " >A</text></g><g transform="matrix(1,0,0,1,96,16)"><text x="10" y="11" style="fill: rgb(0,0,0); fill-opacity: 1.0; font-family: sans-serif; font-size: 10px; " >A</text></g><g transform="matrix(1,0,0,1,96,16)"><text x="19" y="11" style="fill: rgb(0,0,0); fill-opacity: 1.0; font-family: sans-serif; font-size: 10px; " >A</text></g><g transform="matrix(1,0,0,1,96,16)"><text x="28" y="11" style="fill: rgb(0,0,0); fill-opacity: 1.0; font-family: sans-serif; font-size: 10px; " >A</text></g><g transform="matrix(1,0,0,1,96,16)"><text x="37" y="11" style="fill: rgb(0,0,0); fill-opacity: 1.0; font-family: sans-serif; font-size: 10px; " >A</text></g><g transform="matrix(1,0,0,1,96,16)"><text x="46" y="11" style="fill: rgb(0,0,0); fill-opacity: 1.0; font-family: sans-serif; font-size: 10px; " >L</text></g><g transform="matrix(1,0,0,1,96,16)"><text x="55" y="11" style="fill: rgb(0,0,0); fill-opacity: 1.0; font-family: sans-serif; font-size: 10px; " >A</text></g><g transform="matrix(1,0,0,1,96,16)"><text x="64" y="11" style="fill: rgb(0,0,0); fill-opacity: 1.0; font-family: sans-serif; font-size: 10px; " >A</text></g><g transform="matrix(1,0,0,1,96,16)"><text x="73" y="11" style="fill: rgb(0,0,0); fill-opacity: 1.0; font-family: sans-serif; font-size: 10px; " >A</text></g><g transform="matrix(1,0,0,1,96,16)"><text x="82" y="11" style="fill: rgb(0,0,0); fill-opacity: 1.0; font-family: sans-serif; font-size: 10px; " >A</text></g><g transform="matrix(1,0,0,1,96,16)"><text x="91" y="11" style="fill: rgb(0,0,0); fill-opacity: 1.0; font-family: sans-serif; font-size: 10px; " >A</text></g><g transform="matrix(1,0,0,1,96,16)"><text x="102" y="11" style="fill: rgb(0,0,0); fill-opacity: 1.0; font-family: sans-serif; font-size: 10px; " >I</text></g><g transform="matrix(1,0,0,1,96,16)"><text x="109" y="11" style="fill: rgb(0,0,0); fill-opacity: 1.0; font-family: sans-serif; font-size: 10px; " >A</text></g><g transform="matrix(1,0,0,1,96,16)"><text x="118" y="11" style="fill: rgb(0,0,0); fill-opacity: 1.0; font-family: sans-serif; font-size: 10px; " >A</text></g><g transform="matrix(1,0,0,1,96,16)"><text x="127" y="11" style="fill: rgb(0,0,0); fill-opacity: 1.0; font-family: sans-serif; font-size: 10px; " >A</text></g><g transform="matrix(1,0,0,1,96,16)"><text x="136" y="11" style="fill: rgb(0,0,0); fill-opacity: 1.0; font-family: sans-serif; font-size: 10px; " >A</text></g><g transform="matrix(1,0,0,1,96,16)"><text x="145" y="11" style="fill: rgb(0,0,0); fill-opacity: 1.0; font-family: sans-serif; font-size: 10px; " >A</text></g><g transform="matrix(1,0,0,1,96,16)"><text x="154" y="11" style="fill: rgb(0,0,0); fill-opacity: 1.0; font-family: sans-serif; font-size: 10px; " >A</text></g><g transform="matrix(1,0,0,1,96,16)"><text x="163" y="11" style="fill: rgb(0,0,0); fill-opacity: 1.0; font-family: sans-serif; font-size: 10px; " >R</text></g><g transform="matrix(1,0,0,1,96,16)"><text x="171" y="11" style="fill: rgb(0,0,0); fill-opacity: 1.0; font-family: sans-serif; font-size: 10px; " >D</text></g><g transform="matrix(1,0,0,1,96,16)"><text x="180" y="11" style="fill: rgb(0,0,0); fill-opacity: 1.0; font-family: sans-serif; font-size: 10px; " >D</text></g><rect x="0" y="13" width="36" height="13" style="fill: rgb(204,255,0); fill-opacity: 1.0" transform="matrix(1,0,0,1,96,16)" /><rect x="36" y="13" width="18" height="13" style="fill: rgb(51,255,0); fill-opacity: 1.0" transform="matrix(1,0,0,1,96,16)" /><rect x="54" y="13" width="36" height="13" style="fill: rgb(204,255,0); fill-opacity: 1.0" transform="matrix(1,0,0,1,96,16)" /><rect x="90" y="13" width="63" height="13" style="fill: rgb(102,255,0); fill-opacity: 1.0" transform="matrix(1,0,0,1,96,16)" /><rect x="153" y="13" width="9" height="13" style="fill: rgb(204,255,0); fill-opacity: 1.0" transform="matrix(1,0,0,1,96,16)" /><rect x="162" y="13" width="9" height="13" style="fill: rgb(0,0,255); fill-opacity: 1.0" transform="matrix(1,0,0,1,96,16)" /><rect x="171" y="13" width="18" height="13" style="fill: rgb(255,0,0); fill-opacity: 1.0" transform="matrix(1,0,0,1,96,16)" /><g transform="matrix(1,0,0,1,96,16)"><text x="1" y="24" style="fill: rgb(0,0,0); fill-opacity: 1.0; font-family: sans-serif; font-size: 10px; " >A</text></g><g transform="matrix(1,0,0,1,96,16)"><text x="10" y="24" style="fill: rgb(0,0,0); fill-opacity: 1.0; font-family: sans-serif; font-size: 10px; " >A</text></g><g transform="matrix(1,0,0,1,96,16)"><text x="19" y="24" style="fill: rgb(0,0,0); fill-opacity: 1.0; font-family: sans-serif; font-size: 10px; " >A</text></g><g transform="matrix(1,0,0,1,96,16)"><text x="28" y="24" style="fill: rgb(0,0,0); fill-opacity: 1.0; font-family: sans-serif; font-size: 10px; " >A</text></g><g transform="matrix(1,0,0,1,96,16)"><text x="37" y="24" style="fill: rgb(0,0,0); fill-opacity: 1.0; font-family: sans-serif; font-size: 10px; " >L</text></g><g transform="matrix(1,0,0,1,96,16)"><text x="46" y="24" style="fill: rgb(0,0,0); fill-opacity: 1.0; font-family: sans-serif; font-size: 10px; " >L</text></g><g transform="matrix(1,0,0,1,96,16)"><text x="55" y="24" style="fill: rgb(0,0,0); fill-opacity: 1.0; font-family: sans-serif; font-size: 10px; " >A</text></g><g transform="matrix(1,0,0,1,96,16)"><text x="64" y="24" style="fill: rgb(0,0,0); fill-opacity: 1.0; font-family: sans-serif; font-size: 10px; " >A</text></g><g transform="matrix(1,0,0,1,96,16)"><text x="73" y="24" style="fill: rgb(0,0,0); fill-opacity: 1.0; font-family: sans-serif; font-size: 10px; " >A</text></g><g transform="matrix(1,0,0,1,96,16)"><text x="82" y="24" style="fill: rgb(0,0,0); fill-opacity: 1.0; font-family: sans-serif; font-size: 10px; " >A</text></g><g transform="matrix(1,0,0,1,96,16)"><text x="93" y="24" style="fill: rgb(0,0,0); fill-opacity: 1.0; font-family: sans-serif; font-size: 10px; " >I</text></g><g transform="matrix(1,0,0,1,96,16)"><text x="102" y="24" style="fill: rgb(0,0,0); fill-opacity: 1.0; font-family: sans-serif; font-size: 10px; " >I</text></g><g transform="matrix(1,0,0,1,96,16)"><text x="111" y="24" style="fill: rgb(0,0,0); fill-opacity: 1.0; font-family: sans-serif; font-size: 10px; " >I</text></g><g transform="matrix(1,0,0,1,96,16)"><text x="120" y="24" style="fill: rgb(0,0,0); fill-opacity: 1.0; font-family: sans-serif; font-size: 10px; " >I</text></g><g transform="matrix(1,0,0,1,96,16)"><text x="129" y="24" style="fill: rgb(0,0,0); fill-opacity: 1.0; font-family: sans-serif; font-size: 10px; " >I</text></g><g transform="matrix(1,0,0,1,96,16)"><text x="138" y="24" style="fill: rgb(0,0,0); fill-opacity: 1.0; font-family: sans-serif; font-size: 10px; " >I</text></g><g transform="matrix(1,0,0,1,96,16)"><text x="147" y="24" style="fill: rgb(0,0,0); fill-opacity: 1.0; font-family: sans-serif; font-size: 10px; " >I</text></g><g transform="matrix(1,0,0,1,96,16)"><text x="154" y="24" style="fill: rgb(0,0,0); fill-opacity: 1.0; font-family: sans-serif; font-size: 10px; " >A</text></g><g transform="matrix(1,0,0,1,96,16)"><text x="163" y="24" style="fill: rgb(0,0,0); fill-opacity: 1.0; font-family: sans-serif; font-size: 10px; " >R</text></g><g transform="matrix(1,0,0,1,96,16)"><text x="171" y="24" style="fill: rgb(0,0,0); fill-opacity: 1.0; font-family: sans-serif; font-size: 10px; " >D</text></g><g transform="matrix(1,0,0,1,96,16)"><text x="180" y="24" style="fill: rgb(0,0,0); fill-opacity: 1.0; font-family: sans-serif; font-size: 10px; " >D</text></g><rect x="0" y="26" width="27" height="13" style="fill: rgb(204,255,0); fill-opacity: 1.0" transform="matrix(1,0,0,1,96,16)" /><rect x="27" y="26" width="27" height="13" style="fill: rgb(51,255,0); fill-opacity: 1.0" transform="matrix(1,0,0,1,96,16)" /><rect x="54" y="26" width="27" height="13" style="fill: rgb(204,255,0); fill-opacity: 1.0" transform="matrix(1,0,0,1,96,16)" /><rect x="81" y="26" width="27" height="13" style="fill: rgb(102,255,0); fill-opacity: 1.0" transform="matrix(1,0,0,1,96,16)" /><rect x="108" y="26" width="45" height="13" style="fill: rgb(255,153,0); fill-opacity: 1.0" transform="matrix(1,0,0,1,96,16)" /><rect x="153" y="26" width="9" height="13" style="fill: rgb(204,255,0); fill-opacity: 1.0" transform="matrix(1,0,0,1,96,16)" /><rect x="162" y="26" width="9" height="13" style="fill: rgb(0,0,255); fill-opacity: 1.0" transform="matrix(1,0,0,1,96,16)" /><rect x="171" y="26" width="18" height="13" style="fill: rgb(255,0,0); fill-opacity: 1.0" transform="matrix(1,0,0,1,96,16)" /><g transform="matrix(1,0,0,1,96,16)"><text x="1" y="37" style="fill: rgb(0,0,0); fill-opacity: 1.0; font-family: sans-serif; font-size: 10px; " >A</text></g><g transform="matrix(1,0,0,1,96,16)"><text x="10" y="37" style="fill: rgb(0,0,0); fill-opacity: 1.0; font-family: sans-serif; font-size: 10px; " >A</text></g><g transform="matrix(1,0,0,1,96,16)"><text x="19" y="37" style="fill: rgb(0,0,0); fill-opacity: 1.0; font-family: sans-serif; font-size: 10px; " >A</text></g><g transform="matrix(1,0,0,1,96,16)"><text x="28" y="37" style="fill: rgb(0,0,0); fill-opacity: 1.0; font-family: sans-serif; font-size: 10px; " >L</text></g><g transform="matrix(1,0,0,1,96,16)"><text x="37" y="37" style="fill: rgb(0,0,0); fill-opacity: 1.0; font-family: sans-serif; font-size: 10px; " >L</text></g><g transform="matrix(1,0,0,1,96,16)"><text x="46" y="37" style="fill: rgb(0,0,0); fill-opacity: 1.0; font-family: sans-serif; font-size: 10px; " >L</text></g><g transform="matrix(1,0,0,1,96,16)"><text x="55" y="37" style="fill: rgb(0,0,0); fill-opacity: 1.0; font-family: sans-serif; font-size: 10px; " >A</text></g><g transform="matrix(1,0,0,1,96,16)"><text x="64" y="37" style="fill: rgb(0,0,0); fill-opacity: 1.0; font-family: sans-serif; font-size: 10px; " >A</text></g><g transform="matrix(1,0,0,1,96,16)"><text x="73" y="37" style="fill: rgb(0,0,0); fill-opacity: 1.0; font-family: sans-serif; font-size: 10px; " >A</text></g><g transform="matrix(1,0,0,1,96,16)"><text x="84" y="37" style="fill: rgb(0,0,0); fill-opacity: 1.0; font-family: sans-serif; font-size: 10px; " >I</text></g><g transform="matrix(1,0,0,1,96,16)"><text x="93" y="37" style="fill: rgb(0,0,0); fill-opacity: 1.0; font-family: sans-serif; font-size: 10px; " >I</text></g><g transform="matrix(1,0,0,1,96,16)"><text x="102" y="37" style="fill: rgb(0,0,0); fill-opacity: 1.0; font-family: sans-serif; font-size: 10px; " >I</text></g><g transform="matrix(1,0,0,1,96,16)"><text x="108" y="37" style="fill: rgb(0,0,0); fill-opacity: 1.0; font-family: sans-serif; font-size: 10px; " >G</text></g><g transform="matrix(1,0,0,1,96,16)"><text x="117" y="37" style="fill: rgb(0,0,0); fill-opacity: 1.0; font-family: sans-serif; font-size: 10px; " >G</text></g><g transform="matrix(1,0,0,1,96,16)"><text x="126" y="37" style="fill: rgb(0,0,0); fill-opacity: 1.0; font-family: sans-serif; font-size: 10px; " >G</text></g><g transform="matrix(1,0,0,1,96,16)"><text x="135" y="37" style="fill: rgb(0,0,0); fill-opacity: 1.0; font-family: sans-serif; font-size: 10px; " >G</text></g><g transform="matrix(1,0,0,1,96,16)"><text x="144" y="37" style="fill: rgb(0,0,0); fill-opacity: 1.0; font-family: sans-serif; font-size: 10px; " >G</text></g><g transform="matrix(1,0,0,1,96,16)"><text x="154" y="37" style="fill: rgb(0,0,0); fill-opacity: 1.0; font-family: sans-serif; font-size: 10px; " >A</text></g><g transform="matrix(1,0,0,1,96,16)"><text x="163" y="37" style="fill: rgb(0,0,0); fill-opacity: 1.0; font-family: sans-serif; font-size: 10px; " >R</text></g><g transform="matrix(1,0,0,1,96,16)"><text x="171" y="37" style="fill: rgb(0,0,0); fill-opacity: 1.0; font-family: sans-serif; font-size: 10px; " >D</text></g><g transform="matrix(1,0,0,1,96,16)"><text x="180" y="37" style="fill: rgb(0,0,0); fill-opacity: 1.0; font-family: sans-serif; font-size: 10px; " >D</text></g><rect x="0" y="39" width="18" height="13" style="fill: rgb(204,255,0); fill-opacity: 1.0" transform="matrix(1,0,0,1,96,16)" /><rect x="18" y="39" width="36" height="13" style="fill: rgb(51,255,0); fill-opacity: 1.0" transform="matrix(1,0,0,1,96,16)" /><rect x="54" y="39" width="18" height="13" style="fill: rgb(204,255,0); fill-opacity: 1.0" transform="matrix(1,0,0,1,96,16)" /><rect x="72" y="39" width="36" height="13" style="fill: rgb(102,255,0); fill-opacity: 1.0" transform="matrix(1,0,0,1,96,16)" /><rect x="108" y="39" width="45" height="13" style="fill: rgb(0,255,0); fill-opacity: 1.0" transform="matrix(1,0,0,1,96,16)" /><rect x="153" y="39" width="9" height="13" style="fill: rgb(204,255,0); fill-opacity: 1.0" transform="matrix(1,0,0,1,96,16)" /><rect x="162" y="39" width="9" height="13" style="fill: rgb(0,0,255); fill-opacity: 1.0" transform="matrix(1,0,0,1,96,16)" /><rect x="171" y="39" width="18" height="13" style="fill: rgb(255,0,0); fill-opacity: 1.0" transform="matrix(1,0,0,1,96,16)" /><g transform="matrix(1,0,0,1,96,16)"><text x="1" y="50" style="fill: rgb(0,0,0); fill-opacity: 1.0; font-family: sans-serif; font-size: 10px; " >A</text></g><g transform="matrix(1,0,0,1,96,16)"><text x="10" y="50" style="fill: rgb(0,0,0); fill-opacity: 1.0; font-family: sans-serif; font-size: 10px; " >A</text></g><g transform="matrix(1,0,0,1,96,16)"><text x="19" y="50" style="fill: rgb(0,0,0); fill-opacity: 1.0; font-family: sans-serif; font-size: 10px; " >L</text></g><g transform="matrix(1,0,0,1,96,16)"><text x="28" y="50" style="fill: rgb(0,0,0); fill-opacity: 1.0; font-family: sans-serif; font-size: 10px; " >L</text></g><g transform="matrix(1,0,0,1,96,16)"><text x="37" y="50" style="fill: rgb(0,0,0); fill-opacity: 1.0; font-family: sans-serif; font-size: 10px; " >L</text></g><g transform="matrix(1,0,0,1,96,16)"><text x="46" y="50" style="fill: rgb(0,0,0); fill-opacity: 1.0; font-family: sans-serif; font-size: 10px; " >L</text></g><g transform="matrix(1,0,0,1,96,16)"><text x="55" y="50" style="fill: rgb(0,0,0); fill-opacity: 1.0; font-family: sans-serif; font-size: 10px; " >A</text></g><g transform="matrix(1,0,0,1,96,16)"><text x="64" y="50" style="fill: rgb(0,0,0); fill-opacity: 1.0; font-family: sans-serif; font-size: 10px; " >A</text></g><g transform="matrix(1,0,0,1,96,16)"><text x="75" y="50" style="fill: rgb(0,0,0); fill-opacity: 1.0; font-family: sans-serif; font-size: 10px; " >I</text></g><g transform="matrix(1,0,0,1,96,16)"><text x="84" y="50" style="fill: rgb(0,0,0); fill-opacity: 1.0; font-family: sans-serif; font-size: 10px; " >I</text></g><g transform="matrix(1,0,0,1,96,16)"><text x="93" y="50" style="fill: rgb(0,0,0); fill-opacity: 1.0; font-family: sans-serif; font-size: 10px; " >I</text></g><g transform="matrix(1,0,0,1,96,16)"><text x="102" y="50" style="fill: rgb(0,0,0); fill-opacity: 1.0; font-family: sans-serif; font-size: 10px; " >I</text></g><g transform="matrix(1,0,0,1,96,16)"><text x="108" y="50" style="fill: rgb(0,0,0); fill-opacity: 1.0; font-family: sans-serif; font-size: 10px; " >M</text></g><g transform="matrix(1,0,0,1,96,16)"><text x="117" y="50" style="fill: rgb(0,0,0); fill-opacity: 1.0; font-family: sans-serif; font-size: 10px; " >M</text></g><g transform="matrix(1,0,0,1,96,16)"><text x="126" y="50" style="fill: rgb(0,0,0); fill-opacity: 1.0; font-family: sans-serif; font-size: 10px; " >M</text></g><g transform="matrix(1,0,0,1,96,16)"><text x="135" y="50" style="fill: rgb(0,0,0); fill-opacity: 1.0; font-family: sans-serif; font-size: 10px; " >M</text></g><g transform="matrix(1,0,0,1,96,16)"><text x="144" y="50" style="fill: rgb(0,0,0); fill-opacity: 1.0; font-family: sans-serif; font-size: 10px; " >M</text></g><g transform="matrix(1,0,0,1,96,16)"><text x="154" y="50" style="fill: rgb(0,0,0); fill-opacity: 1.0; font-family: sans-serif; font-size: 10px; " >A</text></g><g transform="matrix(1,0,0,1,96,16)"><text x="163" y="50" style="fill: rgb(0,0,0); fill-opacity: 1.0; font-family: sans-serif; font-size: 10px; " >R</text></g><g transform="matrix(1,0,0,1,96,16)"><text x="171" y="50" style="fill: rgb(0,0,0); fill-opacity: 1.0; font-family: sans-serif; font-size: 10px; " >D</text></g><g transform="matrix(1,0,0,1,96,16)"><text x="180" y="50" style="fill: rgb(0,0,0); fill-opacity: 1.0; font-family: sans-serif; font-size: 10px; " >D</text></g><rect x="0" y="52" width="9" height="13" style="fill: rgb(204,255,0); fill-opacity: 1.0" transform="matrix(1,0,0,1,96,16)" /><rect x="9" y="52" width="45" height="13" style="fill: rgb(51,255,0); fill-opacity: 1.0" transform="matrix(1,0,0,1,96,16)" /><rect x="54" y="52" width="9" height="13" style="fill: rgb(204,255,0); fill-opacity: 1.0" transform="matrix(1,0,0,1,96,16)" /><rect x="63" y="52" width="45" height="13" style="fill: rgb(102,255,0); fill-opacity: 1.0" transform="matrix(1,0,0,1,96,16)" /><rect x="108" y="52" width="45" height="13" style="fill: rgb(0,255,102); fill-opacity: 1.0" transform="matrix(1,0,0,1,96,16)" /><rect x="153" y="52" width="9" height="13" style="fill: rgb(204,255,0); fill-opacity: 1.0" transform="matrix(1,0,0,1,96,16)" /><rect x="162" y="52" width="9" height="13" style="fill: rgb(0,0,255); fill-opacity: 1.0" transform="matrix(1,0,0,1,96,16)" /><rect x="171" y="52" width="18" height="13" style="fill: rgb(255,0,0); fill-opacity: 1.0" transform="matrix(1,0,0,1,96,16)" /><g transform="matrix(1,0,0,1,96,16)"><text x="1" y="63" style="fill: rgb(0,0,0); fill-opacity: 1.0; font-family: sans-serif; font-size: 10px; " >A</text></g><g transform="matrix(1,0,0,1,96,16)"><text x="10" y="63" style="fill: rgb(0,0,0); fill-opacity: 1.0; font-family: sans-serif; font-size: 10px; " >L</text></g><g transform="matrix(1,0,0,1,96,16)"><text x="19" y="63" style="fill: rgb(0,0,0); fill-opacity: 1.0; font-family: sans-serif; font-size: 10px; " >L</text></g><g transform="matrix(1,0,0,1,96,16)"><text x="28" y="63" style="fill: rgb(0,0,0); fill-opacity: 1.0; font-family: sans-serif; font-size: 10px; " >L</text></g><g transform="matrix(1,0,0,1,96,16)"><text x="37" y="63" style="fill: rgb(0,0,0); fill-opacity: 1.0; font-family: sans-serif; font-size: 10px; " >L</text></g><g transform="matrix(1,0,0,1,96,16)"><text x="46" y="63" style="fill: rgb(0,0,0); fill-opacity: 1.0; font-family: sans-serif; font-size: 10px; " >L</text></g><g transform="matrix(1,0,0,1,96,16)"><text x="55" y="63" style="fill: rgb(0,0,0); fill-opacity: 1.0; font-family: sans-serif; font-size: 10px; " >A</text></g><g transform="matrix(1,0,0,1,96,16)"><text x="66" y="63" style="fill: rgb(0,0,0); fill-opacity: 1.0; font-family: sans-serif; font-size: 10px; " >I</text></g><g transform="matrix(1,0,0,1,96,16)"><text x="75" y="63" style="fill: rgb(0,0,0); fill-opacity: 1.0; font-family: sans-serif; font-size: 10px; " >I</text></g><g transform="matrix(1,0,0,1,96,16)"><text x="84" y="63" style="fill: rgb(0,0,0); fill-opacity: 1.0; font-family: sans-serif; font-size: 10px; " >I</text></g><g transform="matrix(1,0,0,1,96,16)"><text x="93" y="63" style="fill: rgb(0,0,0); fill-opacity: 1.0; font-family: sans-serif; font-size: 10px; " >I</text></g><g transform="matrix(1,0,0,1,96,16)"><text x="102" y="63" style="fill: rgb(0,0,0); fill-opacity: 1.0; font-family: sans-serif; font-size: 10px; " >I</text></g><g transform="matrix(1,0,0,1,96,16)"><text x="109" y="63" style="fill: rgb(0,0,0); fill-opacity: 1.0; font-family: sans-serif; font-size: 10px; " >F</text></g><g transform="matrix(1,0,0,1,96,16)"><text x="118" y="63" style="fill: rgb(0,0,0); fill-opacity: 1.0; font-family: sans-serif; font-size: 10px; " >F</text></g><g transform="matrix(1,0,0,1,96,16)"><text x="127" y="63" style="fill: rgb(0,0,0); fill-opacity: 1.0; font-family: sans-serif; font-size: 10px; " >F</text></g><g transform="matrix(1,0,0,1,96,16)"><text x="136" y="63" style="fill: rgb(0,0,0); fill-opacity: 1.0; font-family: sans-serif; font-size: 10px; " >F</text></g><g transform="matrix(1,0,0,1,96,16)"><text x="145" y="63" style="fill: rgb(0,0,0); fill-opacity: 1.0; font-family: sans-serif; font-size: 10px; " >F</text></g><g transform="matrix(1,0,0,1,96,16)"><text x="154" y="63" style="fill: rgb(0,0,0); fill-opacity: 1.0; font-family: sans-serif; font-size: 10px; " >A</text></g><g transform="matrix(1,0,0,1,96,16)"><text x="163" y="63" style="fill: rgb(0,0,0); fill-opacity: 1.0; font-family: sans-serif; font-size: 10px; " >R</text></g><g transform="matrix(1,0,0,1,96,16)"><text x="171" y="63" style="fill: rgb(0,0,0); fill-opacity: 1.0; font-family: sans-serif; font-size: 10px; " >D</text></g><g transform="matrix(1,0,0,1,96,16)"><text x="180" y="63" style="fill: rgb(0,0,0); fill-opacity: 1.0; font-family: sans-serif; font-size: 10px; " >D</text></g><rect x="0" y="65" width="117" height="13" style="fill: rgb(51,255,0); fill-opacity: 1.0" transform="matrix(1,0,0,1,96,16)" /><rect x="117" y="65" width="36" height="13" style="fill: rgb(204,255,0); fill-opacity: 1.0" transform="matrix(1,0,0,1,96,16)" /><rect x="153" y="65" width="18" height="13" style="fill: rgb(51,255,0); fill-opacity: 1.0" transform="matrix(1,0,0,1,96,16)" /><rect x="171" y="65" width="9" height="13" style="fill: rgb(204,0,255); fill-opacity: 1.0" transform="matrix(1,0,0,1,96,16)" /><rect x="180" y="65" width="9" height="13" style="fill: rgb(102,0,255); fill-opacity: 1.0" transform="matrix(1,0,0,1,96,16)" /><g transform="matrix(1,0,0,1,96,16)"><text x="1" y="76" style="fill: rgb(0,0,0); fill-opacity: 1.0; font-family: sans-serif; font-size: 10px; " >L</text></g><g transform="matrix(1,0,0,1,96,16)"><text x="10" y="76" style="fill: rgb(0,0,0); fill-opacity: 1.0; font-family: sans-serif; font-size: 10px; " >L</text></g><g transform="matrix(1,0,0,1,96,16)"><text x="19" y="76" style="fill: rgb(0,0,0); fill-opacity: 1.0; font-family: sans-serif; font-size: 10px; " >L</text></g><g transform="matrix(1,0,0,1,96,16)"><text x="28" y="76" style="fill: rgb(0,0,0); fill-opacity: 1.0; font-family: sans-serif; font-size: 10px; " >L</text></g><g transform="matrix(1,0,0,1,96,16)"><text x="37" y="76" style="fill: rgb(0,0,0); fill-opacity: 1.0; font-family: sans-serif; font-size: 10px; " >L</text></g><g transform="matrix(1,0,0,1,96,16)"><text x="46" y="76" style="fill: rgb(0,0,0); fill-opacity: 1.0; font-family: sans-serif; font-size: 10px; " >L</text></g><g transform="matrix(1,0,0,1,96,16)"><text x="55" y="76" style="fill: rgb(0,0,0); fill-opacity: 1.0; font-family: sans-serif; font-size: 10px; " >L</text></g><g transform="matrix(1,0,0,1,96,16)"><text x="64" y="76" style="fill: rgb(0,0,0); fill-opacity: 1.0; font-family: sans-serif; font-size: 10px; " >L</text></g><g transform="matrix(1,0,0,1,96,16)"><text x="73" y="76" style="fill: rgb(0,0,0); fill-opacity: 1.0; font-family: sans-serif; font-size: 10px; " >L</text></g><g transform="matrix(1,0,0,1,96,16)"><text x="82" y="76" style="fill: rgb(0,0,0); fill-opacity: 1.0; font-family: sans-serif; font-size: 10px; " >L</text></g><g transform="matrix(1,0,0,1,96,16)"><text x="91" y="76" style="fill: rgb(0,0,0); fill-opacity: 1.0; font-family: sans-serif; font-size: 10px; " >L</text></g><g transform="matrix(1,0,0,1,96,16)"><text x="100" y="76" style="fill: rgb(0,0,0); fill-opacity: 1.0; font-family: sans-serif; font-size: 10px; " >L</text></g><g transform="matrix(1,0,0,1,96,16)"><text x="109" y="76" style="fill: rgb(0,0,0); fill-opacity: 1.0; font-family: sans-serif; font-size: 10px; " >L</text></g><g transform="matrix(1,0,0,1,96,16)"><text x="118" y="76" style="fill: rgb(0,0,0); fill-opacity: 1.0; font-family: sans-serif; font-size: 10px; " >A</text></g><g transform="matrix(1,0,0,1,96,16)"><text x="127" y="76" style="fill: rgb(0,0,0); fill-opacity: 1.0; font-family: sans-serif; font-size: 10px; " >A</text></g><g transform="matrix(1,0,0,1,96,16)"><text x="136" y="76" style="fill: rgb(0,0,0); fill-opacity: 1.0; font-family: sans-serif; font-size: 10px; " >A</text></g><g transform="matrix(1,0,0,1,96,16)"><text x="145" y="76" style="fill: rgb(0,0,0); fill-opacity: 1.0; font-family: sans-serif; font-size: 10px; " >A</text></g><g transform="matrix(1,0,0,1,96,16)"><text x="154" y="76" style="fill: rgb(0,0,0); fill-opacity: 1.0; font-family: sans-serif; font-size: 10px; " >L</text></g><g transform="matrix(1,0,0,1,96,16)"><text x="163" y="76" style="fill: rgb(0,0,0); fill-opacity: 1.0; font-family: sans-serif; font-size: 10px; " >L</text></g><g transform="matrix(1,0,0,1,96,16)"><text x="171" y="76" style="fill: rgb(0,0,0); fill-opacity: 1.0; font-family: sans-serif; font-size: 10px; " >N</text></g><g transform="matrix(1,0,0,1,96,16)"><text x="181" y="76" style="fill: rgb(0,0,0); fill-opacity: 1.0; font-family: sans-serif; font-size: 10px; " >K</text></g><rect x="0" y="78" width="126" height="13" style="fill: rgb(51,255,0); fill-opacity: 1.0" transform="matrix(1,0,0,1,96,16)" /><rect x="126" y="78" width="27" height="13" style="fill: rgb(255,0,204); fill-opacity: 1.0" transform="matrix(1,0,0,1,96,16)" /><rect x="153" y="78" width="18" height="13" style="fill: rgb(51,255,0); fill-opacity: 1.0" transform="matrix(1,0,0,1,96,16)" /><rect x="171" y="78" width="9" height="13" style="fill: rgb(204,0,255); fill-opacity: 1.0" transform="matrix(1,0,0,1,96,16)" /><rect x="180" y="78" width="9" height="13" style="fill: rgb(102,0,255); fill-opacity: 1.0" transform="matrix(1,0,0,1,96,16)" /><g transform="matrix(1,0,0,1,96,16)"><text x="1" y="89" style="fill: rgb(0,0,0); fill-opacity: 1.0; font-family: sans-serif; font-size: 10px; " >L</text></g><g transform="matrix(1,0,0,1,96,16)"><text x="10" y="89" style="fill: rgb(0,0,0); fill-opacity: 1.0; font-family: sans-serif; font-size: 10px; " >L</text></g><g transform="matrix(1,0,0,1,96,16)"><text x="19" y="89" style="fill: rgb(0,0,0); fill-opacity: 1.0; font-family: sans-serif; font-size: 10px; " >L</text></g><g transform="matrix(1,0,0,1,96,16)"><text x="28" y="89" style="fill: rgb(0,0,0); fill-opacity: 1.0; font-family: sans-serif; font-size: 10px; " >L</text></g><g transform="matrix(1,0,0,1,96,16)"><text x="37" y="89" style="fill: rgb(0,0,0); fill-opacity: 1.0; font-family: sans-serif; font-size: 10px; " >L</text></g><g transform="matrix(1,0,0,1,96,16)"><text x="46" y="89" style="fill: rgb(0,0,0); fill-opacity: 1.0; font-family: sans-serif; font-size: 10px; " >L</text></g><g transform="matrix(1,0,0,1,96,16)"><text x="55" y="89" style="fill: rgb(0,0,0); fill-opacity: 1.0; font-family: sans-serif; font-size: 10px; " >L</text></g><g transform="matrix(1,0,0,1,96,16)"><text x="64" y="89" style="fill: rgb(0,0,0); fill-opacity: 1.0; font-family: sans-serif; font-size: 10px; " >L</text></g><g transform="matrix(1,0,0,1,96,16)"><text x="73" y="89" style="fill: rgb(0,0,0); fill-opacity: 1.0; font-family: sans-serif; font-size: 10px; " >L</text></g><g transform="matrix(1,0,0,1,96,16)"><text x="82" y="89" style="fill: rgb(0,0,0); fill-opacity: 1.0; font-family: sans-serif; font-size: 10px; " >L</text></g><g transform="matrix(1,0,0,1,96,16)"><text x="91" y="89" style="fill: rgb(0,0,0); fill-opacity: 1.0; font-family: sans-serif; font-size: 10px; " >L</text></g><g transform="matrix(1,0,0,1,96,16)"><text x="100" y="89" style="fill: rgb(0,0,0); fill-opacity: 1.0; font-family: sans-serif; font-size: 10px; " >L</text></g><g transform="matrix(1,0,0,1,96,16)"><text x="109" y="89" style="fill: rgb(0,0,0); fill-opacity: 1.0; font-family: sans-serif; font-size: 10px; " >L</text></g><g transform="matrix(1,0,0,1,96,16)"><text x="118" y="89" style="fill: rgb(0,0,0); fill-opacity: 1.0; font-family: sans-serif; font-size: 10px; " >L</text></g><g transform="matrix(1,0,0,1,96,16)"><text x="126" y="89" style="fill: rgb(0,0,0); fill-opacity: 1.0; font-family: sans-serif; font-size: 10px; " >Q</text></g><g transform="matrix(1,0,0,1,96,16)"><text x="135" y="89" style="fill: rgb(0,0,0); fill-opacity: 1.0; font-family: sans-serif; font-size: 10px; " >Q</text></g><g transform="matrix(1,0,0,1,96,16)"><text x="144" y="89" style="fill: rgb(0,0,0); fill-opacity: 1.0; font-family: sans-serif; font-size: 10px; " >Q</text></g><g transform="matrix(1,0,0,1,96,16)"><text x="154" y="89" style="fill: rgb(0,0,0); fill-opacity: 1.0; font-family: sans-serif; font-size: 10px; " >L</text></g><g transform="matrix(1,0,0,1,96,16)"><text x="163" y="89" style="fill: rgb(0,0,0); fill-opacity: 1.0; font-family: sans-serif; font-size: 10px; " >L</text></g><g transform="matrix(1,0,0,1,96,16)"><text x="171" y="89" style="fill: rgb(0,0,0); fill-opacity: 1.0; font-family: sans-serif; font-size: 10px; " >N</text></g><g transform="matrix(1,0,0,1,96,16)"><text x="181" y="89" style="fill: rgb(0,0,0); fill-opacity: 1.0; font-family: sans-serif; font-size: 10px; " >K</text></g><rect x="0" y="91" width="135" height="13" style="fill: rgb(51,255,0); fill-opacity: 1.0" transform="matrix(1,0,0,1,96,16)" /><rect x="135" y="91" width="18" height="13" style="fill: rgb(0,204,255); fill-opacity: 1.0" transform="matrix(1,0,0,1,96,16)" /><rect x="153" y="91" width="18" height="13" style="fill: rgb(51,255,0); fill-opacity: 1.0" transform="matrix(1,0,0,1,96,16)" /><rect x="171" y="91" width="9" height="13" style="fill: rgb(204,0,255); fill-opacity: 1.0" transform="matrix(1,0,0,1,96,16)" /><rect x="180" y="91" width="9" height="13" style="fill: rgb(102,0,255); fill-opacity: 1.0" transform="matrix(1,0,0,1,96,16)" /><g transform="matrix(1,0,0,1,96,16)"><text x="1" y="102" style="fill: rgb(0,0,0); fill-opacity: 1.0; font-family: sans-serif; font-size: 10px; " >L</text></g><g transform="matrix(1,0,0,1,96,16)"><text x="10" y="102" style="fill: rgb(0,0,0); fill-opacity: 1.0; font-family: sans-serif; font-size: 10px; " >L</text></g><g transform="matrix(1,0,0,1,96,16)"><text x="19" y="102" style="fill: rgb(0,0,0); fill-opacity: 1.0; font-family: sans-serif; font-size: 10px; " >L</text></g><g transform="matrix(1,0,0,1,96,16)"><text x="28" y="102" style="fill: rgb(0,0,0); fill-opacity: 1.0; font-family: sans-serif; font-size: 10px; " >L</text></g><g transform="matrix(1,0,0,1,96,16)"><text x="37" y="102" style="fill: rgb(0,0,0); fill-opacity: 1.0; font-family: sans-serif; font-size: 10px; " >L</text></g><g transform="matrix(1,0,0,1,96,16)"><text x="46" y="102" style="fill: rgb(0,0,0); fill-opacity: 1.0; font-family: sans-serif; font-size: 10px; " >L</text></g><g transform="matrix(1,0,0,1,96,16)"><text x="55" y="102" style="fill: rgb(0,0,0); fill-opacity: 1.0; font-family: sans-serif; font-size: 10px; " >L</text></g><g transform="matrix(1,0,0,1,96,16)"><text x="64" y="102" style="fill: rgb(0,0,0); fill-opacity: 1.0; font-family: sans-serif; font-size: 10px; " >L</text></g><g transform="matrix(1,0,0,1,96,16)"><text x="73" y="102" style="fill: rgb(0,0,0); fill-opacity: 1.0; font-family: sans-serif; font-size: 10px; " >L</text></g><g transform="matrix(1,0,0,1,96,16)"><text x="82" y="102" style="fill: rgb(0,0,0); fill-opacity: 1.0; font-family: sans-serif; font-size: 10px; " >L</text></g><g transform="matrix(1,0,0,1,96,16)"><text x="91" y="102" style="fill: rgb(0,0,0); fill-opacity: 1.0; font-family: sans-serif; font-size: 10px; " >L</text></g><g transform="matrix(1,0,0,1,96,16)"><text x="100" y="102" style="fill: rgb(0,0,0); fill-opacity: 1.0; font-family: sans-serif; font-size: 10px; " >L</text></g><g transform="matrix(1,0,0,1,96,16)"><text x="109" y="102" style="fill: rgb(0,0,0); fill-opacity: 1.0; font-family: sans-serif; font-size: 10px; " >L</text></g><g transform="matrix(1,0,0,1,96,16)"><text x="118" y="102" style="fill: rgb(0,0,0); fill-opacity: 1.0; font-family: sans-serif; font-size: 10px; " >L</text></g><g transform="matrix(1,0,0,1,96,16)"><text x="127" y="102" style="fill: rgb(0,0,0); fill-opacity: 1.0; font-family: sans-serif; font-size: 10px; " >L</text></g><g transform="matrix(1,0,0,1,96,16)"><text x="135" y="102" style="fill: rgb(0,0,0); fill-opacity: 1.0; font-family: sans-serif; font-size: 10px; " >W</text></g><g transform="matrix(1,0,0,1,96,16)"><text x="144" y="102" style="fill: rgb(0,0,0); fill-opacity: 1.0; font-family: sans-serif; font-size: 10px; " >W</text></g><g transform="matrix(1,0,0,1,96,16)"><text x="154" y="102" style="fill: rgb(0,0,0); fill-opacity: 1.0; font-family: sans-serif; font-size: 10px; " >L</text></g><g transform="matrix(1,0,0,1,96,16)"><text x="163" y="102" style="fill: rgb(0,0,0); fill-opacity: 1.0; font-family: sans-serif; font-size: 10px; " >L</text></g><g transform="matrix(1,0,0,1,96,16)"><text x="171" y="102" style="fill: rgb(0,0,0); fill-opacity: 1.0; font-family: sans-serif; font-size: 10px; " >N</text></g><g transform="matrix(1,0,0,1,96,16)"><text x="181" y="102" style="fill: rgb(0,0,0); fill-opacity: 1.0; font-family: sans-serif; font-size: 10px; " >K</text></g><rect x="0" y="104" width="144" height="13" style="fill: rgb(51,255,0); fill-opacity: 1.0" transform="matrix(1,0,0,1,96,16)" /><rect x="144" y="104" width="9" height="13" style="fill: rgb(255,255,0); fill-opacity: 1.0" transform="matrix(1,0,0,1,96,16)" /><rect x="153" y="104" width="18" height="13" style="fill: rgb(51,255,0); fill-opacity: 1.0" transform="matrix(1,0,0,1,96,16)" /><rect x="171" y="104" width="9" height="13" style="fill: rgb(204,0,255); fill-opacity: 1.0" transform="matrix(1,0,0,1,96,16)" /><rect x="180" y="104" width="9" height="13" style="fill: rgb(102,0,255); fill-opacity: 1.0" transform="matrix(1,0,0,1,96,16)" /><g transform="matrix(1,0,0,1,96,16)"><text x="1" y="115" style="fill: rgb(0,0,0); fill-opacity: 1.0; font-family: sans-serif; font-size: 10px; " >L</text></g><g transform="matrix(1,0,0,1,96,16)"><text x="10" y="115" style="fill: rgb(0,0,0); fill-opacity: 1.0; font-family: sans-serif; font-size: 10px; " >L</text></g><g transform="matrix(1,0,0,1,96,16)"><text x="19" y="115" style="fill: rgb(0,0,0); fill-opacity: 1.0; font-family: sans-serif; font-size: 10px; " >L</text></g><g transform="matrix(1,0,0,1,96,16)"><text x="28" y="115" style="fill: rgb(0,0,0); fill-opacity: 1.0; font-family: sans-serif; font-size: 10px; " >L</text></g><g transform="matrix(1,0,0,1,96,16)"><text x="37" y="115" style="fill: rgb(0,0,0); fill-opacity: 1.0; font-family: sans-serif; font-size: 10px; " >L</text></g><g transform="matrix(1,0,0,1,96,16)"><text x="46" y="115" style="fill: rgb(0,0,0); fill-opacity: 1.0; font-family: sans-serif; font-size: 10px; " >L</text></g><g transform="matrix(1,0,0,1,96,16)"><text x="55" y="115" style="fill: rgb(0,0,0); fill-opacity: 1.0; font-family: sans-serif; font-size: 10px; " >L</text></g><g transform="matrix(1,0,0,1,96,16)"><text x="64" y="115" style="fill: rgb(0,0,0); fill-opacity: 1.0; font-family: sans-serif; font-size: 10px; " >L</text></g><g transform="matrix(1,0,0,1,96,16)"><text x="73" y="115" style="fill: rgb(0,0,0); fill-opacity: 1.0; font-family: sans-serif; font-size: 10px; " >L</text></g><g transform="matrix(1,0,0,1,96,16)"><text x="82" y="115" style="fill: rgb(0,0,0); fill-opacity: 1.0; font-family: sans-serif; font-size: 10px; " >L</text></g><g transform="matrix(1,0,0,1,96,16)"><text x="91" y="115" style="fill: rgb(0,0,0); fill-opacity: 1.0; font-family: sans-serif; font-size: 10px; " >L</text></g><g transform="matrix(1,0,0,1,96,16)"><text x="100" y="115" style="fill: rgb(0,0,0); fill-opacity: 1.0; font-family: sans-serif; font-size: 10px; " >L</text></g><g transform="matrix(1,0,0,1,96,16)"><text x="109" y="115" style="fill: rgb(0,0,0); fill-opacity: 1.0; font-family: sans-serif; font-size: 10px; " >L</text></g><g transform="matrix(1,0,0,1,96,16)"><text x="118" y="115" style="fill: rgb(0,0,0); fill-opacity: 1.0; font-family: sans-serif; font-size: 10px; " >L</text></g><g transform="matrix(1,0,0,1,96,16)"><text x="127" y="115" style="fill: rgb(0,0,0); fill-opacity: 1.0; font-family: sans-serif; font-size: 10px; " >L</text></g><g transform="matrix(1,0,0,1,96,16)"><text x="136" y="115" style="fill: rgb(0,0,0); fill-opacity: 1.0; font-family: sans-serif; font-size: 10px; " >L</text></g><g transform="matrix(1,0,0,1,96,16)"><text x="144" y="115" style="fill: rgb(0,0,0); fill-opacity: 1.0; font-family: sans-serif; font-size: 10px; " >C</text></g><g transform="matrix(1,0,0,1,96,16)"><text x="154" y="115" style="fill: rgb(0,0,0); fill-opacity: 1.0; font-family: sans-serif; font-size: 10px; " >L</text></g><g transform="matrix(1,0,0,1,96,16)"><text x="163" y="115" style="fill: rgb(0,0,0); fill-opacity: 1.0; font-family: sans-serif; font-size: 10px; " >L</text></g><g transform="matrix(1,0,0,1,96,16)"><text x="171" y="115" style="fill: rgb(0,0,0); fill-opacity: 1.0; font-family: sans-serif; font-size: 10px; " >N</text></g><g transform="matrix(1,0,0,1,96,16)"><text x="181" y="115" style="fill: rgb(0,0,0); fill-opacity: 1.0; font-family: sans-serif; font-size: 10px; " >K</text></g><rect x="0" y="117" width="171" height="13" style="fill: rgb(51,255,0); fill-opacity: 1.0" transform="matrix(1,0,0,1,96,16)" /><rect x="171" y="117" width="9" height="13" style="fill: rgb(204,0,255); fill-opacity: 1.0" transform="matrix(1,0,0,1,96,16)" /><rect x="180" y="117" width="9" height="13" style="fill: rgb(102,0,255); fill-opacity: 1.0" transform="matrix(1,0,0,1,96,16)" /><g transform="matrix(1,0,0,1,96,16)"><text x="1" y="128" style="fill: rgb(0,0,0); fill-opacity: 1.0; font-family: sans-serif; font-size: 10px; " >L</text></g><g transform="matrix(1,0,0,1,96,16)"><text x="10" y="128" style="fill: rgb(0,0,0); fill-opacity: 1.0; font-family: sans-serif; font-size: 10px; " >L</text></g><g transform="matrix(1,0,0,1,96,16)"><text x="19" y="128" style="fill: rgb(0,0,0); fill-opacity: 1.0; font-family: sans-serif; font-size: 10px; " >L</text></g><g transform="matrix(1,0,0,1,96,16)"><text x="28" y="128" style="fill: rgb(0,0,0); fill-opacity: 1.0; font-family: sans-serif; font-size: 10px; " >L</text></g><g transform="matrix(1,0,0,1,96,16)"><text x="37" y="128" style="fill: rgb(0,0,0); fill-opacity: 1.0; font-family: sans-serif; font-size: 10px; " >L</text></g><g transform="matrix(1,0,0,1,96,16)"><text x="46" y="128" style="fill: rgb(0,0,0); fill-opacity: 1.0; font-family: sans-serif; font-size: 10px; " >L</text></g><g transform="matrix(1,0,0,1,96,16)"><text x="55" y="128" style="fill: rgb(0,0,0); fill-opacity: 1.0; font-family: sans-serif; font-size: 10px; " >L</text></g><g transform="matrix(1,0,0,1,96,16)"><text x="64" y="128" style="fill: rgb(0,0,0); fill-opacity: 1.0; font-family: sans-serif; font-size: 10px; " >L</text></g><g transform="matrix(1,0,0,1,96,16)"><text x="73" y="128" style="fill: rgb(0,0,0); fill-opacity: 1.0; font-family: sans-serif; font-size: 10px; " >L</text></g><g transform="matrix(1,0,0,1,96,16)"><text x="82" y="128" style="fill: rgb(0,0,0); fill-opacity: 1.0; font-family: sans-serif; font-size: 10px; " >L</text></g><g transform="matrix(1,0,0,1,96,16)"><text x="91" y="128" style="fill: rgb(0,0,0); fill-opacity: 1.0; font-family: sans-serif; font-size: 10px; " >L</text></g><g transform="matrix(1,0,0,1,96,16)"><text x="100" y="128" style="fill: rgb(0,0,0); fill-opacity: 1.0; font-family: sans-serif; font-size: 10px; " >L</text></g><g transform="matrix(1,0,0,1,96,16)"><text x="109" y="128" style="fill: rgb(0,0,0); fill-opacity: 1.0; font-family: sans-serif; font-size: 10px; " >L</text></g><g transform="matrix(1,0,0,1,96,16)"><text x="118" y="128" style="fill: rgb(0,0,0); fill-opacity: 1.0; font-family: sans-serif; font-size: 10px; " >L</text></g><g transform="matrix(1,0,0,1,96,16)"><text x="127" y="128" style="fill: rgb(0,0,0); fill-opacity: 1.0; font-family: sans-serif; font-size: 10px; " >L</text></g><g transform="matrix(1,0,0,1,96,16)"><text x="136" y="128" style="fill: rgb(0,0,0); fill-opacity: 1.0; font-family: sans-serif; font-size: 10px; " >L</text></g><g transform="matrix(1,0,0,1,96,16)"><text x="145" y="128" style="fill: rgb(0,0,0); fill-opacity: 1.0; font-family: sans-serif; font-size: 10px; " >L</text></g><g transform="matrix(1,0,0,1,96,16)"><text x="154" y="128" style="fill: rgb(0,0,0); fill-opacity: 1.0; font-family: sans-serif; font-size: 10px; " >L</text></g><g transform="matrix(1,0,0,1,96,16)"><text x="163" y="128" style="fill: rgb(0,0,0); fill-opacity: 1.0; font-family: sans-serif; font-size: 10px; " >L</text></g><g transform="matrix(1,0,0,1,96,16)"><text x="171" y="128" style="fill: rgb(0,0,0); fill-opacity: 1.0; font-family: sans-serif; font-size: 10px; " >N</text></g><g transform="matrix(1,0,0,1,96,16)"><text x="181" y="128" style="fill: rgb(0,0,0); fill-opacity: 1.0; font-family: sans-serif; font-size: 10px; " >K</text></g><rect x="0" y="0" width="96" height="20" style="fill: rgb(255,255,255); fill-opacity: 1.0" transform="matrix(1,0,0,1,0,149)" /><g transform="matrix(1,0,0,1,0,149)"><text x="2" y="8" style="fill: rgb(0,0,0); fill-opacity: 1.0; font-family: sans-serif; font-size: 10px; " >Right click</text></g><g transform="matrix(1,0,0,1,0,149)"><text x="2" y="18" style="fill: rgb(0,0,0); fill-opacity: 1.0; font-family: sans-serif; font-size: 10px; " >to add annotation</text></g></svg>
